<svg width="20" height="18" viewBox="0 0 20 18" fill="none" xmlns="http://www.w3.org/2000/svg">
<path d="M9.97147 18C9.70768 18.0007 9.44636 17.946 9.20256 17.8391C8.95876 17.7322 8.73728 17.5752 8.55086 17.3771L1.68125 10.0866C1.13857 9.50446 0.710492 8.81349 0.42194 8.05399C0.133387 7.29449 -0.00986538 6.48164 0.000527577 5.6628C0.0057563 4.9124 0.150431 4.17047 0.426265 3.47951C0.702099 2.78854 1.10367 2.16212 1.60798 1.63612C2.11229 1.11012 2.70943 0.694871 3.3652 0.414168C4.02096 0.133466 4.72246 -0.00717939 5.42952 0.000289427C6.14924 -0.00740439 6.86309 0.138367 7.52872 0.428958C8.19436 0.719549 8.79823 1.14904 9.30452 1.69196L9.97147 2.39978L10.5184 1.81937C11.4627 0.790612 12.7264 0.15991 14.0753 0.044085C15.4242 -0.0717405 16.7669 0.335158 17.8549 1.18942C18.4741 1.69554 18.9847 2.33587 19.3526 3.06778C19.7204 3.79969 19.9371 4.60638 19.9882 5.43412C20.0393 6.26186 19.9237 7.09166 19.649 7.86826C19.3743 8.64485 18.9468 9.35043 18.3951 9.93799L11.3921 17.3771C11.2057 17.5752 10.9842 17.7322 10.7404 17.8391C10.4966 17.946 10.2353 18.0007 9.97147 18ZM5.40284 1.40884C4.34274 1.40769 3.3238 1.8443 2.56163 2.62628C2.17306 3.02304 1.86405 3.49905 1.65317 4.02572C1.44228 4.55239 1.33387 5.11886 1.33443 5.69111C1.32859 6.32058 1.44054 6.94502 1.66379 7.52823C1.88704 8.11144 2.21715 8.64182 2.63499 9.08862L9.50461 16.3791C9.56661 16.4454 9.64037 16.4981 9.72165 16.534C9.80292 16.57 9.8901 16.5885 9.97814 16.5885C10.0662 16.5885 10.1534 16.57 10.2346 16.534C10.3159 16.4981 10.3897 16.4454 10.4517 16.3791L17.4614 8.9329C17.8728 8.487 18.1907 7.95376 18.3942 7.36821C18.5976 6.78265 18.682 6.15803 18.6419 5.53539C18.6062 4.90637 18.443 4.29294 18.1633 3.73709C17.8835 3.18123 17.4939 2.69608 17.0212 2.31484C16.1916 1.6657 15.1679 1.35877 14.1409 1.45122C13.1138 1.54368 12.1535 2.02922 11.4388 2.81739L10.445 3.90034C10.383 3.96669 10.3092 4.01934 10.228 4.05528C10.1467 4.09121 10.0595 4.10971 9.97147 4.10971C9.88343 4.10971 9.79625 4.09121 9.71498 4.05528C9.6337 4.01934 9.55994 3.96669 9.49794 3.90034L8.36412 2.69706C7.58318 1.87548 6.52914 1.41278 5.42952 1.40884H5.40284Z" fill="#606060"/>
</svg>
