<svg width="29" height="29" viewBox="0 0 29 29" fill="none" xmlns="http://www.w3.org/2000/svg">
<path d="M10.875 26.5833C11.5424 26.5833 12.0834 26.0423 12.0834 25.375C12.0834 24.7076 11.5424 24.1667 10.875 24.1667C10.2077 24.1667 9.66669 24.7076 9.66669 25.375C9.66669 26.0423 10.2077 26.5833 10.875 26.5833Z" stroke="#606060" stroke-width="2" stroke-linecap="round" stroke-linejoin="round"/>
<path d="M24.1666 26.5833C24.834 26.5833 25.375 26.0423 25.375 25.375C25.375 24.7076 24.834 24.1667 24.1666 24.1667C23.4993 24.1667 22.9583 24.7076 22.9583 25.375C22.9583 26.0423 23.4993 26.5833 24.1666 26.5833Z" stroke="#606060" stroke-width="2" stroke-linecap="round" stroke-linejoin="round"/>
<path d="M1.20831 1.20834H6.04165L9.27998 17.3879C9.39048 17.9442 9.69312 18.444 10.1349 18.7996C10.5767 19.1553 11.1296 19.3442 11.6966 19.3333H23.4416C24.0087 19.3442 24.5616 19.1553 25.0034 18.7996C25.4452 18.444 25.7478 17.9442 25.8583 17.3879L27.7916 7.25001H7.24998" stroke="#606060" stroke-width="2" stroke-linecap="round" stroke-linejoin="round"/>
</svg>
