<svg width="31" height="31" viewBox="0 0 31 31" fill="none" xmlns="http://www.w3.org/2000/svg">
<path d="M15.5 30C23.5081 30 30 23.5081 30 15.5C30 7.49187 23.5081 1 15.5 1C7.49187 1 1 7.49187 1 15.5C1 23.5081 7.49187 30 15.5 30Z" stroke="#606060" stroke-width="1.5" stroke-miterlimit="10" stroke-linecap="round" stroke-linejoin="round"/>
<path d="M15.5 19.2213C11.0088 19.2213 7.15928 21.7876 5.2345 25.6372C7.80087 28.3319 11.5221 29.8717 15.5 29.8717C19.4779 29.8717 23.1991 28.2036 25.7655 25.6372C23.8407 21.9159 19.9911 19.2213 15.5 19.2213Z" stroke="#606060" stroke-width="1.5" stroke-miterlimit="10" stroke-linecap="round" stroke-linejoin="round"/>
<path d="M15.5 15.8849C18.0513 15.8849 20.1195 13.8167 20.1195 11.2655C20.1195 8.7142 18.0513 6.646 15.5 6.646C12.9488 6.646 10.8806 8.7142 10.8806 11.2655C10.8806 13.8167 12.9488 15.8849 15.5 15.8849Z" stroke="#606060" stroke-width="1.5" stroke-miterlimit="10" stroke-linecap="round" stroke-linejoin="round"/>
</svg>
